<svg xmlns="http://www.w3.org/2000/svg" width="128" height="128" viewBox="0 0 128 128" fill="none">
  <title>치명타 피해량</title>
  <defs>
    <filter id="shadow" x="0" y="0" width="128" height="128" filterUnits="userSpaceOnUse" color-interpolation-filters="sRGB">
      <feDropShadow dx="0" dy="4" stdDeviation="4" flood-color="#000000" flood-opacity="0.4"/>
    </filter>
    <mask id="sword-gap" maskUnits="userSpaceOnUse" x="0" y="0" width="128" height="128">
      <rect width="128" height="128" fill="white"/>
      <path d="m106 16-24 6-47 47 24 24 47-47Z" fill="black"/>
      <path d="m33 62 33 33" stroke="black" stroke-width="17" stroke-linecap="round"/>
    </mask>
  </defs>
  <g fill="#FFFFFF" filter="url(#shadow)">
    <path d="m61 23 11 24 30-5-15 25 23 18-30 3-4 27-19-21-25 14 7-29-25-12 28-9-5-28 20 17 4-24Z" mask="url(#sword-gap)"/>
    <path d="m103 19-18 6-43 43 17 17 43-43 1-23Z"/>
    <path d="m33 66 29 29" stroke="#FFFFFF" stroke-width="9" stroke-linecap="round"/>
    <path d="m28 100 17-17" stroke="#FFFFFF" stroke-width="11" stroke-linecap="round"/>
    <circle cx="25" cy="103" r="7"/>
  </g>
</svg>
